<svg xmlns="http://www.w3.org/2000/svg" viewBox="0 0 440 440" width="440" height="440">
<text x="220.0" y="28" text-anchor="middle" font-family="JetBrains Mono, monospace" font-size="16" font-weight="600" fill="#c9d1d9">Language Bytes</text>
<polygon points="220.0,195.0 253.3,219.2 240.6,258.3 199.4,258.3 186.7,219.2" fill="none" stroke="#30363d" stroke-width="1" opacity="0.5"/>
<polygon points="220.0,160.0 286.6,208.4 261.1,286.6 178.9,286.6 153.4,208.4" fill="none" stroke="#30363d" stroke-width="1" opacity="0.5"/>
<polygon points="220.0,125.0 319.9,197.6 281.7,314.9 158.3,314.9 120.1,197.6" fill="none" stroke="#30363d" stroke-width="1" opacity="0.5"/>
<polygon points="220.0,90.0 353.1,186.7 302.3,343.3 137.7,343.3 86.9,186.7" fill="none" stroke="#30363d" stroke-width="1" opacity="0.5"/>
<line x1="220.0" y1="230.0" x2="220.0" y2="90.0" stroke="#30363d" stroke-width="1" opacity="0.5"/>
<text x="220.0" y="64.0" text-anchor="middle" dominant-baseline="middle" font-family="JetBrains Mono, monospace" font-size="12" fill="#c9d1d9">JavaScript (100)</text>
<line x1="220.0" y1="230.0" x2="353.1" y2="186.7" stroke="#30363d" stroke-width="1" opacity="0.5"/>
<text x="377.9" y="178.7" text-anchor="start" dominant-baseline="middle" font-family="JetBrains Mono, monospace" font-size="12" fill="#c9d1d9">Python (69)</text>
<line x1="220.0" y1="230.0" x2="302.3" y2="343.3" stroke="#30363d" stroke-width="1" opacity="0.5"/>
<text x="317.6" y="364.3" text-anchor="start" dominant-baseline="middle" font-family="JetBrains Mono, monospace" font-size="12" fill="#c9d1d9">CSS (36)</text>
<line x1="220.0" y1="230.0" x2="137.7" y2="343.3" stroke="#30363d" stroke-width="1" opacity="0.5"/>
<text x="122.4" y="364.3" text-anchor="end" dominant-baseline="middle" font-family="JetBrains Mono, monospace" font-size="12" fill="#c9d1d9">HTML (33)</text>
<line x1="220.0" y1="230.0" x2="86.9" y2="186.7" stroke="#30363d" stroke-width="1" opacity="0.5"/>
<text x="62.1" y="178.7" text-anchor="end" dominant-baseline="middle" font-family="JetBrains Mono, monospace" font-size="12" fill="#c9d1d9">PLpgSQL (9)</text>
<polygon points="220.0,90.0 312.4,200.0 249.5,270.5 192.5,267.8 207.8,226.0" fill="#39D353" fill-opacity="0.30" stroke="#39D353" stroke-width="2"/>
<circle cx="220.0" cy="90.0" r="3.5" fill="#39D353"/>
<circle cx="312.4" cy="200.0" r="3.5" fill="#39D353"/>
<circle cx="249.5" cy="270.5" r="3.5" fill="#39D353"/>
<circle cx="192.5" cy="267.8" r="3.5" fill="#39D353"/>
<circle cx="207.8" cy="226.0" r="3.5" fill="#39D353"/>
</svg>